<svg width="97" height="28" viewBox="0 0 97 28" fill="none" xmlns="http://www.w3.org/2000/svg">
<path d="M92.7267 28H3.77393C1.81786 28 0.21582 26.4241 0.21582 24.5V3.5C0.21582 1.57587 1.81786 -1.90735e-06 3.77393 -1.90735e-06H92.7267C94.6827 -1.90735e-06 96.2848 1.57587 96.2848 3.5V24.5C96.2848 26.4241 94.6827 28 92.7267 28Z" fill="black"/>
<path d="M7.64154 5.27742C7.4325 5.49267 7.31152 5.8278 7.31152 6.2618V21.7423C7.31152 22.1763 7.4325 22.5114 7.64154 22.7267L7.69313 22.7739L16.5119 14.1027V13.8979L7.69313 5.22667L7.64154 5.27742Z" fill="url(#paint0_linear_33089_627976)"/>
<path d="M19.448 16.9941L16.5117 14.1023V13.8975L19.4516 11.0056L19.5174 11.0433L22.999 12.9919C23.9926 13.5449 23.9926 14.4549 22.999 15.0114L19.5174 16.9565L19.448 16.9941Z" fill="url(#paint1_linear_33089_627976)"/>
<path d="M19.5177 16.9567L16.512 14.0001L7.6416 22.7265C7.97162 23.0677 8.50978 23.1089 9.12177 22.7676L19.5177 16.9567Z" fill="url(#paint2_linear_33089_627976)"/>
<path d="M19.5177 11.0434L9.12177 5.2325C8.50978 4.89475 7.97162 4.93588 7.6416 5.27713L16.512 14L19.5177 11.0434Z" fill="url(#paint3_linear_33089_627976)"/>
<path d="M48.7023 15.227C47.0309 15.227 45.6654 16.4782 45.6654 18.2046C45.6654 19.917 47.0309 21.1814 48.7023 21.1814C50.3773 21.1814 51.7427 19.917 51.7427 18.2046C51.7427 16.4782 50.3773 15.227 48.7023 15.227ZM48.7023 20.0089C47.7852 20.0089 46.9962 19.2642 46.9962 18.2046C46.9962 17.131 47.7852 16.3995 48.7023 16.3995C49.6194 16.3995 50.412 17.131 50.412 18.2046C50.412 19.2642 49.6194 20.0089 48.7023 20.0089ZM42.0762 15.227C40.4012 15.227 39.0394 16.4782 39.0394 18.2046C39.0394 19.917 40.4012 21.1814 42.0762 21.1814C43.7503 21.1814 45.113 19.917 45.113 18.2046C45.113 16.4782 43.7503 15.227 42.0762 15.227ZM42.0762 20.0089C41.1582 20.0089 40.3665 19.2642 40.3665 18.2046C40.3665 17.131 41.1582 16.3995 42.0762 16.3995C42.9933 16.3995 43.7823 17.131 43.7823 18.2046C43.7823 19.2642 42.9933 20.0089 42.0762 20.0089ZM34.1914 16.1396V17.4049H37.263C37.1731 18.1119 36.933 18.6316 36.5647 18.9939C36.1164 19.4314 35.4181 19.917 34.1914 19.917C32.3012 19.917 30.821 18.4164 30.821 16.557C30.821 14.6976 32.3012 13.197 34.1914 13.197C35.2135 13.197 35.9571 13.5899 36.506 14.0991L37.4124 13.2075C36.6447 12.4865 35.6236 11.9326 34.1914 11.9326C31.5993 11.9326 29.4209 14.0072 29.4209 16.557C29.4209 19.1067 31.5993 21.1814 34.1914 21.1814C35.5924 21.1814 36.6447 20.7299 37.472 19.8829C38.3197 19.049 38.5839 17.8765 38.5839 16.9297C38.5839 16.6357 38.559 16.3654 38.5145 16.1396H34.1914ZM66.4332 17.1205C66.1833 16.4546 65.4121 15.227 63.8412 15.227C62.2845 15.227 60.9884 16.4336 60.9884 18.2046C60.9884 19.8724 62.2711 21.1814 63.9906 21.1814C65.3809 21.1814 66.1833 20.3475 66.5133 19.8619L65.4814 19.1855C65.1372 19.6807 64.6684 20.0089 63.9906 20.0089C63.3172 20.0089 62.8342 19.7052 62.5246 19.1067L66.5729 17.4591L66.4332 17.1205ZM62.3058 18.1119C62.2711 16.9639 63.2123 16.3759 63.8865 16.3759C64.4149 16.3759 64.8632 16.6357 65.0127 17.0076L62.3058 18.1119ZM59.0155 21.0002H60.3462V12.2502H59.0155V21.0002ZM56.8361 15.8902H56.7916C56.4928 15.542 55.9226 15.227 55.2003 15.227C53.6845 15.227 52.2986 16.536 52.2986 18.2142C52.2986 19.8829 53.6845 21.1814 55.2003 21.1814C55.9226 21.1814 56.4928 20.8637 56.7916 20.505H56.8361V20.932C56.8361 22.0704 56.2179 22.682 55.2207 22.682C54.4077 22.682 53.9034 22.1045 53.6952 21.6189L52.5379 22.094C52.8715 22.8832 53.7548 23.8545 55.2207 23.8545C56.781 23.8545 58.0975 22.9515 58.0975 20.7544V15.4081H56.8361V15.8902ZM55.3141 20.0089C54.397 20.0089 53.6294 19.2537 53.6294 18.2142C53.6294 17.1651 54.397 16.3995 55.3141 16.3995C56.2179 16.3995 56.9304 17.1651 56.9304 18.2142C56.9304 19.2537 56.2179 20.0089 55.3141 20.0089ZM72.6635 12.2502H69.4808V21.0002H70.8079V17.6849H72.6635C74.1374 17.6849 75.5829 16.6357 75.5829 14.9671C75.5829 13.2994 74.1339 12.2502 72.6635 12.2502ZM72.6982 16.4677H70.8079V13.4674H72.6982C73.6891 13.4674 74.2548 14.2767 74.2548 14.9671C74.2548 15.6444 73.6891 16.4677 72.6982 16.4677ZM80.9023 15.2104C79.9434 15.2104 78.9462 15.6269 78.5361 16.55L79.7139 17.0356C79.9674 16.55 80.4335 16.3925 80.9263 16.3925C81.6148 16.3925 82.3131 16.7994 82.3237 17.5177V17.6096C82.0836 17.4731 81.5694 17.271 80.937 17.271C79.6685 17.271 78.376 17.9579 78.376 19.2397C78.376 20.4122 79.415 21.1674 80.5829 21.1674C81.476 21.1674 81.9688 20.771 82.2784 20.3099H82.3237V20.9862H83.6056V17.6297C83.6056 16.0784 82.4278 15.2104 80.9023 15.2104ZM80.7422 20.0054C80.3081 20.0054 79.7032 19.7936 79.7032 19.2642C79.7032 18.587 80.4575 18.3271 81.1104 18.3271C81.6948 18.3271 81.9688 18.454 82.3237 18.6211C82.2197 19.4314 81.5107 20.0054 80.7422 20.0054ZM88.2756 15.402L86.75 19.1951H86.7047L85.1275 15.402H83.6963L86.066 20.7027L84.7139 23.6524H86.1007L89.7522 15.402H88.2756ZM76.3123 21.0002H77.6431V12.2502H76.3123V21.0002Z" fill="white"/>
<path d="M30.5746 8.79877H31.1453V5.61669H32.302V5.12244H29.418V5.61669H30.5746V8.79877Z" fill="white"/>
<path d="M32.2994 8.79877H32.9007L33.9147 5.76701H34.0879V5.12244H33.6268L32.2994 8.79877ZM32.9389 7.80517H34.9337L34.7732 7.34658H33.0994L32.9389 7.80517ZM34.9694 8.79877H35.5707L34.2459 5.12244H33.958V5.76701L34.9694 8.79877ZM33.7542 4.91098H34.1134C34.183 4.85663 34.2382 4.79293 34.279 4.7199C34.3197 4.64517 34.3401 4.56109 34.3401 4.46768C34.3401 4.31312 34.2866 4.19338 34.1796 4.10845C34.0743 4.02353 33.9435 3.98107 33.7873 3.98107C33.7363 3.98107 33.6879 3.98531 33.6421 3.99381C33.5962 4.0023 33.5554 4.01334 33.5198 4.02693V4.40399C33.5418 4.40059 33.5648 4.39719 33.5886 4.39379C33.6123 4.3904 33.637 4.3887 33.6624 4.3887C33.7525 4.3887 33.8221 4.40823 33.8714 4.4473C33.9223 4.48466 33.9478 4.53647 33.9478 4.60271C33.9478 4.66215 33.9299 4.7165 33.8943 4.76576C33.8586 4.81501 33.8119 4.86257 33.7542 4.90843V4.91098Z" fill="white"/>
<path d="M36.2101 8.79877H36.7808V5.12244H36.2101V8.79877Z" fill="white"/>
<path d="M39.1247 8.79877H39.6801V6.13133H39.9706L39.5782 5.93006L41.6087 8.79877H42.1259V5.12244H41.568V7.79243H41.2801L41.6699 7.9937L39.6419 5.12244H39.1247V8.79877Z" fill="white"/>
<path d="M44.615 8.88794C44.9683 8.88794 45.2732 8.80896 45.5296 8.65101C45.7878 8.49305 45.9857 8.27055 46.1233 7.98351C46.2608 7.69477 46.3296 7.35422 46.3296 6.96188V6.95678C46.3296 6.56274 46.26 6.2222 46.1207 5.93515C45.9831 5.64641 45.7861 5.42392 45.5296 5.26766C45.2732 5.1114 44.9683 5.03327 44.615 5.03327C44.2634 5.03327 43.9586 5.1114 43.7004 5.26766C43.4439 5.42392 43.246 5.64557 43.1068 5.93261C42.9675 6.21965 42.8979 6.56104 42.8979 6.95678V6.96188C42.8979 7.35422 42.9667 7.69477 43.1042 7.98351C43.2418 8.27225 43.4388 8.4956 43.6953 8.65355C43.9518 8.80981 44.2583 8.88794 44.615 8.88794ZM44.615 8.38095C44.3789 8.38095 44.176 8.32235 44.0061 8.20516C43.838 8.08796 43.708 7.92321 43.6163 7.7109C43.5263 7.4969 43.4813 7.24722 43.4813 6.96188V6.95678C43.4813 6.66804 43.528 6.41752 43.6214 6.20521C43.7148 5.9929 43.8456 5.829 44.0138 5.7135C44.1836 5.59801 44.384 5.54026 44.615 5.54026C44.846 5.54026 45.0464 5.59801 45.2163 5.7135C45.3861 5.829 45.5169 5.9929 45.6086 6.20521C45.7003 6.41752 45.7462 6.66804 45.7462 6.95678V6.96188C45.7462 7.24722 45.7003 7.4969 45.6086 7.7109C45.5169 7.92321 45.3861 8.08796 45.2163 8.20516C45.0464 8.32235 44.846 8.38095 44.615 8.38095ZM43.7208 4.75557H44.2558L44.5946 4.22565H44.6354L44.9742 4.75557H45.5093L44.908 3.91992H44.322L43.7208 4.75557ZM44.615 9.96052C44.7101 9.96052 44.7908 9.9274 44.857 9.86116C44.9233 9.79492 44.9564 9.7151 44.9564 9.62168C44.9564 9.52657 44.9233 9.44589 44.857 9.37965C44.7908 9.31341 44.7101 9.28029 44.615 9.28029C44.5216 9.28029 44.4409 9.31341 44.373 9.37965C44.3067 9.44589 44.2736 9.52657 44.2736 9.62168C44.2736 9.7151 44.3067 9.79492 44.373 9.86116C44.4409 9.9274 44.5216 9.96052 44.615 9.96052Z" fill="white"/>
<path d="M47.1041 8.79877H47.6748V5.12244H47.1041V8.79877Z" fill="white"/>
<path d="M50.0187 8.79877H51.346C51.7129 8.79877 52.0246 8.72659 52.281 8.58222C52.5392 8.43615 52.7362 8.22554 52.8721 7.95039C53.0097 7.67524 53.0785 7.34318 53.0785 6.95424V6.94914C53.0785 6.56359 53.0097 6.23493 52.8721 5.96318C52.7362 5.69142 52.5392 5.48336 52.281 5.33899C52.0229 5.19462 51.7112 5.12244 51.346 5.12244H50.0187V8.79877ZM50.5894 8.30452V5.61669H51.2823C51.5371 5.61669 51.7545 5.66934 51.9346 5.77465C52.1146 5.87995 52.2522 6.03282 52.3473 6.23324C52.4441 6.43365 52.4925 6.67484 52.4925 6.95678V6.96188C52.4925 7.24552 52.445 7.48755 52.3498 7.68797C52.2564 7.88839 52.1188 8.04125 51.9371 8.14656C51.7571 8.25187 51.5388 8.30452 51.2823 8.30452H50.5894Z" fill="white"/>
<path d="M55.3357 8.88794C55.6449 8.88794 55.9098 8.83104 56.1306 8.71725C56.3531 8.60345 56.5238 8.44549 56.6427 8.24337C56.7633 8.03956 56.8236 7.80262 56.8236 7.53256V5.12244H56.2504V7.48925C56.2504 7.75421 56.1714 7.96907 56.0134 8.13382C55.8555 8.29857 55.6296 8.38095 55.3357 8.38095C55.0453 8.38095 54.8194 8.29857 54.6581 8.13382C54.4984 7.96907 54.4186 7.75421 54.4186 7.48925V5.12244H53.8453V7.53256C53.8453 7.80262 53.9056 8.03956 54.0262 8.24337C54.1468 8.44549 54.3184 8.60345 54.5409 8.71725C54.7634 8.83104 55.0283 8.88794 55.3357 8.88794Z" fill="white"/>
<path d="M57.7433 8.79877H58.2987V6.13133H58.5892L58.1968 5.93006L60.2273 8.79877H60.7445V5.12244H60.1866V7.79243H59.8987L60.2885 7.9937L58.2605 5.12244H57.7433V8.79877Z" fill="white"/>
<path d="M63.2183 8.88794C63.5393 8.88794 63.8187 8.8251 64.0565 8.69941C64.2943 8.57203 64.4786 8.39369 64.6094 8.16439C64.7402 7.9334 64.8056 7.6625 64.8056 7.35168V6.89564H63.2948V7.35677H64.24L64.2374 7.4383C64.2357 7.62683 64.1924 7.79158 64.1075 7.93255C64.0226 8.07353 63.9037 8.18393 63.7508 8.26375C63.5996 8.34188 63.4239 8.38095 63.2234 8.38095C62.9941 8.38095 62.7954 8.32405 62.6273 8.21025C62.4591 8.09476 62.3292 7.93085 62.2375 7.71855C62.1458 7.50454 62.0999 7.25147 62.0999 6.95933V6.95424C62.0999 6.6655 62.1449 6.41582 62.2349 6.20521C62.3266 5.9929 62.4557 5.829 62.6222 5.7135C62.7886 5.59801 62.9848 5.54026 63.2107 5.54026C63.4621 5.54026 63.6727 5.59886 63.8425 5.71605C64.0141 5.83325 64.1321 6.00055 64.1967 6.21795L64.2043 6.24343H64.7775L64.775 6.21795C64.7308 5.98016 64.6383 5.77295 64.4973 5.59631C64.3563 5.41797 64.1763 5.27955 63.9572 5.18103C63.7381 5.08252 63.4892 5.03327 63.2107 5.03327C62.8693 5.03327 62.5712 5.11225 62.3164 5.2702C62.0617 5.42816 61.8647 5.65151 61.7254 5.94025C61.5861 6.22729 61.5165 6.56614 61.5165 6.95678V6.96188C61.5165 7.35422 61.5853 7.69562 61.7228 7.98605C61.8621 8.27479 62.0591 8.49729 62.3139 8.65355C62.5687 8.80981 62.8701 8.88794 63.2183 8.88794Z" fill="white"/>
<path d="M67.9443 8.79877H68.515V5.61669H69.6717V5.12244H66.7877V5.61669H67.9443V8.79877Z" fill="white"/>
<path d="M70.3697 8.79877H70.9404V7.3848H71.7149C71.72 7.3848 71.7251 7.3848 71.7302 7.3848C71.7353 7.3848 71.7404 7.3848 71.7455 7.3848L72.4945 8.79877H73.1544L72.3315 7.29818C72.5557 7.22174 72.7306 7.09011 72.8563 6.90328C72.982 6.71475 73.0448 6.4965 73.0448 6.24852V6.24343C73.0448 6.01583 72.9947 5.81881 72.8945 5.65236C72.796 5.48421 72.655 5.35428 72.4716 5.26256C72.2882 5.16915 72.0708 5.12244 71.8194 5.12244H70.3697V8.79877ZM70.9404 6.92112V5.60141H71.7455C71.968 5.60141 72.1412 5.66 72.2652 5.7772C72.3909 5.89439 72.4538 6.0549 72.4538 6.25871V6.26381C72.4538 6.47272 72.3935 6.63492 72.2729 6.75042C72.1523 6.86422 71.9824 6.92112 71.7633 6.92112H70.9404Z" fill="white"/>
<path d="M73.8601 8.79877H76.1938V8.30452H74.4308V7.16315H76.0995V6.68927H74.4308V5.61669H76.1938V5.12244H73.8601V8.79877ZM74.1327 4.75557H74.6677L75.0066 4.22565H75.0473L75.3862 4.75557H75.9212L75.3199 3.91992H74.734L74.1327 4.75557Z" fill="white"/>
<path d="M77.0192 8.79877H77.5746V6.13133H77.8651L77.4727 5.93006L79.5033 8.79877H80.0204V5.12244H79.4625V7.79243H79.1746L79.5644 7.9937L77.5364 5.12244H77.0192V8.79877Z" fill="white"/>
<defs>
<linearGradient id="paint0_linear_33089_627976" x1="15.7289" y1="21.9035" x2="3.98281" y2="9.96241" gradientUnits="userSpaceOnUse">
<stop stop-color="#00A0FF"/>
<stop offset="0.0066" stop-color="#00A1FF"/>
<stop offset="0.2601" stop-color="#00BEFF"/>
<stop offset="0.5122" stop-color="#00D2FF"/>
<stop offset="0.7604" stop-color="#00DFFF"/>
<stop offset="1" stop-color="#00E3FF"/>
</linearGradient>
<linearGradient id="paint1_linear_33089_627976" x1="24.2929" y1="13.9989" x2="7.07383" y2="13.9989" gradientUnits="userSpaceOnUse">
<stop stop-color="#FFE000"/>
<stop offset="0.4087" stop-color="#FFBD00"/>
<stop offset="0.7754" stop-color="#FFA500"/>
<stop offset="1" stop-color="#FF9C00"/>
</linearGradient>
<linearGradient id="paint2_linear_33089_627976" x1="17.8833" y1="12.3928" x2="1.95462" y2="-3.80027" gradientUnits="userSpaceOnUse">
<stop stop-color="#FF3A44"/>
<stop offset="1" stop-color="#C31162"/>
</linearGradient>
<linearGradient id="paint3_linear_33089_627976" x1="5.40875" y1="27.8767" x2="12.5216" y2="20.6458" gradientUnits="userSpaceOnUse">
<stop stop-color="#32A071"/>
<stop offset="0.0685" stop-color="#2DA771"/>
<stop offset="0.4762" stop-color="#15CF74"/>
<stop offset="0.8009" stop-color="#06E775"/>
<stop offset="1" stop-color="#00F076"/>
</linearGradient>
</defs>
</svg>
