<svg width="87" height="28" viewBox="0 0 87 28" fill="none" xmlns="http://www.w3.org/2000/svg">
<path d="M6.13525 27.9985C5.91223 27.9985 5.6946 27.9957 5.47332 27.9907C5.01494 27.9847 4.55763 27.9448 4.10514 27.8713C3.68321 27.7987 3.27448 27.6635 2.89242 27.4703C2.51387 27.2786 2.1686 27.0274 1.86984 26.7261C1.56675 26.4284 1.31442 26.0831 1.12284 25.7039C0.929143 25.3222 0.795097 24.9131 0.725366 24.4909C0.650062 24.0371 0.60932 23.5783 0.60349 23.1184C0.598849 22.964 0.592773 22.45 0.592773 22.45V5.54067C0.592773 5.54067 0.599244 5.03456 0.603526 4.88587C0.609108 4.42668 0.649614 3.96858 0.724692 3.51554C0.794552 3.0921 0.928702 2.68182 1.1225 2.2989C1.31338 1.91996 1.56431 1.5744 1.86557 1.27562C2.16649 0.973999 2.51287 0.72145 2.89206 0.527185C3.27324 0.334587 3.6812 0.200369 4.10227 0.129028C4.55625 0.0547792 5.01515 0.0146369 5.47513 0.00893758L6.13561 0H81.3609L82.0293 0.00929626C82.4851 0.0147124 82.9398 0.0544965 83.3896 0.12831C83.815 0.200546 84.2272 0.335701 84.6127 0.52933C85.3724 0.920831 85.9905 1.54022 86.3805 2.30069C86.5712 2.68096 86.7033 3.0879 86.7722 3.50768C86.8482 3.96444 86.8907 4.42614 86.8995 4.88909C86.9016 5.09639 86.9016 5.31906 86.9016 5.54067C86.9074 5.81516 86.9074 6.07643 86.9074 6.33984V21.6594C86.9074 21.9253 86.9074 22.1848 86.9016 22.4464C86.9016 22.6845 86.9016 22.9025 86.8987 23.1269C86.8902 23.5816 86.8484 24.0351 86.7736 24.4837C86.7053 24.909 86.572 25.3213 86.3783 25.7061C86.1854 26.0812 85.9345 26.4235 85.6349 26.7204C85.3359 27.0233 84.99 27.276 84.6106 27.4689C84.2261 27.6636 83.8145 27.7992 83.3896 27.8713C82.9372 27.9452 82.4798 27.9851 82.0214 27.9907C81.807 27.9957 81.5825 27.9985 81.3645 27.9985L80.5711 28L6.13525 27.9985Z" fill="black"/>
<path d="M18.0824 14.2182C18.0903 13.6072 18.2526 13.0082 18.5542 12.4768C18.8558 11.9454 19.2869 11.499 19.8074 11.1789C19.4767 10.7067 19.0405 10.3181 18.5334 10.0439C18.0262 9.76972 17.4621 9.61758 16.8859 9.59955C15.6567 9.47053 14.4651 10.3351 13.8387 10.3351C13.2002 10.3351 12.2358 9.61236 11.1974 9.63373C10.5256 9.65543 9.87098 9.85076 9.29719 10.2007C8.7234 10.5506 8.25004 11.0432 7.92323 11.6305C6.50756 14.0815 7.56352 17.6836 8.91961 19.6649C9.59809 20.635 10.391 21.7187 11.4286 21.6802C12.4439 21.6381 12.8231 21.0328 14.0487 21.0328C15.2629 21.0328 15.6186 21.6802 16.6772 21.6558C17.7667 21.6381 18.4531 20.6814 19.1078 19.702C19.5953 19.0108 19.9704 18.2468 20.2193 17.4383C19.5863 17.1706 19.0462 16.7225 18.6662 16.1499C18.2862 15.5773 18.0832 14.9054 18.0824 14.2182V14.2182Z" fill="white"/>
<path d="M16.0835 8.29728C16.6775 7.58417 16.9702 6.66759 16.8993 5.74219C15.9917 5.83751 15.1534 6.27125 14.5514 6.957C14.257 7.29201 14.0316 7.68174 13.8879 8.10393C13.7443 8.52612 13.6852 8.97248 13.7142 9.4175C14.1681 9.42217 14.6172 9.32378 15.0276 9.12974C15.438 8.9357 15.799 8.65107 16.0835 8.29728Z" fill="white"/>
<path d="M30.9167 19.2252H27.452L26.6199 21.6821H25.1523L28.4341 12.5923H29.9589L33.2407 21.6821H31.7481L30.9167 19.2252ZM27.8108 18.0915H30.5572L29.2033 14.1042H29.1654L27.8108 18.0915Z" fill="white"/>
<path d="M40.3286 18.3689C40.3286 20.4283 39.2263 21.7515 37.5629 21.7515C37.1415 21.7735 36.7225 21.6765 36.3537 21.4714C35.9849 21.2663 35.6814 20.9616 35.4777 20.592H35.4463V23.8745H34.0859V15.0549H35.4027V16.1572H35.4277C35.6407 15.7894 35.9494 15.4862 36.321 15.2799C36.6925 15.0736 37.1131 14.9719 37.5379 14.9856C39.2199 14.9856 40.3286 16.3152 40.3286 18.3689ZM38.9304 18.3689C38.9304 17.0272 38.237 16.1451 37.179 16.1451C36.1397 16.1451 35.4406 17.0457 35.4406 18.3689C35.4406 19.7042 36.1397 20.5985 37.179 20.5985C38.237 20.5985 38.9304 19.7228 38.9304 18.3689Z" fill="white"/>
<path d="M47.6216 18.3689C47.6216 20.4283 46.5193 21.7515 44.8559 21.7515C44.4345 21.7735 44.0154 21.6765 43.6467 21.4714C43.2779 21.2663 42.9743 20.9616 42.7707 20.592H42.7392V23.8745H41.3789V15.0549H42.6956V16.1572H42.7206C42.9336 15.7894 43.2423 15.4862 43.6139 15.2799C43.9855 15.0736 44.406 14.9719 44.8308 14.9856C46.5128 14.9856 47.6216 16.3152 47.6216 18.3689ZM46.2233 18.3689C46.2233 17.0272 45.53 16.1451 44.472 16.1451C43.4326 16.1451 42.7335 17.0457 42.7335 18.3689C42.7335 19.7042 43.4326 20.5985 44.472 20.5985C45.53 20.5985 46.2233 19.7228 46.2233 18.3689H46.2233Z" fill="white"/>
<path d="M52.4433 19.1492C52.5441 20.0506 53.4198 20.6424 54.6164 20.6424C55.763 20.6424 56.5879 20.0505 56.5879 19.2378C56.5879 18.5322 56.0904 18.1098 54.9123 17.8203L53.7343 17.5365C52.0652 17.1333 51.2903 16.3527 51.2903 15.086C51.2903 13.5177 52.657 12.4404 54.5978 12.4404C56.5185 12.4404 57.8353 13.5177 57.8796 15.086H56.5064C56.4242 14.1789 55.6743 13.6313 54.5785 13.6313C53.4826 13.6313 52.7328 14.1853 52.7328 14.9917C52.7328 15.6343 53.2117 16.0124 54.3833 16.3019L55.3848 16.5478C57.2498 16.9889 58.0247 17.738 58.0247 19.0676C58.0247 20.7682 56.6701 21.8333 54.5156 21.8333C52.4997 21.8333 51.1387 20.7932 51.0508 19.1491L52.4433 19.1492Z" fill="white"/>
<path d="M60.9602 13.4863V15.0547H62.2205V16.1319H60.9602V19.7854C60.9602 20.353 61.2126 20.6175 61.7666 20.6175C61.9162 20.6149 62.0655 20.6044 62.214 20.586V21.6568C61.965 21.7034 61.7118 21.7245 61.4585 21.7197C60.1167 21.7197 59.5935 21.2158 59.5935 19.9305V16.1319H58.6299V15.0547H59.5935V13.4863H60.9602Z" fill="white"/>
<path d="M62.9512 18.3686C62.9512 16.2834 64.1792 14.9731 66.0943 14.9731C68.0158 14.9731 69.2381 16.2834 69.2381 18.3686C69.2381 20.4595 68.0222 21.764 66.0943 21.764C64.1671 21.764 62.9512 20.4595 62.9512 18.3686ZM67.8521 18.3686C67.8521 16.9382 67.1966 16.094 66.0943 16.094C64.992 16.094 64.3372 16.9447 64.3372 18.3686C64.3372 19.8047 64.992 20.6425 66.0943 20.6425C67.1966 20.6425 67.852 19.8047 67.852 18.3686H67.8521Z" fill="white"/>
<path d="M70.3594 15.0549H71.6568V16.1829H71.6883C71.7761 15.8306 71.9824 15.5192 72.2727 15.3012C72.563 15.0831 72.9195 14.9717 73.2824 14.9855C73.4391 14.985 73.5954 15.002 73.7484 15.0363V16.3087C73.5505 16.2482 73.3441 16.2204 73.1372 16.2265C72.9396 16.2185 72.7426 16.2533 72.5597 16.3286C72.3768 16.4039 72.2124 16.5179 72.0777 16.6628C71.9431 16.8076 71.8413 16.9799 71.7795 17.1678C71.7177 17.3557 71.6973 17.5547 71.7197 17.7512V21.6821H70.3594L70.3594 15.0549Z" fill="white"/>
<path d="M80.0201 19.7354C79.8371 20.9384 78.6655 21.764 77.1665 21.764C75.2386 21.764 74.042 20.4723 74.042 18.4C74.042 16.3213 75.2451 14.9731 77.1093 14.9731C78.9429 14.9731 80.0959 16.2327 80.0959 18.2421V18.7081H75.4152V18.7903C75.3936 19.0342 75.4241 19.2799 75.5048 19.5111C75.5854 19.7423 75.7143 19.9537 75.883 20.1313C76.0516 20.3088 76.256 20.4484 76.4828 20.5409C76.7095 20.6333 76.9533 20.6765 77.198 20.6675C77.5194 20.6976 77.842 20.6232 78.1178 20.4552C78.3935 20.2873 78.6077 20.0348 78.7284 19.7353L80.0201 19.7354ZM75.4216 17.7574H78.7349C78.7471 17.5381 78.7138 17.3187 78.6372 17.1128C78.5606 16.907 78.4422 16.7192 78.2896 16.5613C78.137 16.4033 77.9533 16.2786 77.7502 16.195C77.5471 16.1114 77.3289 16.0707 77.1093 16.0754C76.8878 16.0741 76.6682 16.1167 76.4632 16.2006C76.2582 16.2846 76.0719 16.4084 75.915 16.5648C75.7581 16.7211 75.6337 16.907 75.549 17.1117C75.4644 17.3164 75.421 17.5359 75.4216 17.7574V17.7574Z" fill="white"/>
<path d="M26.4714 9.31272H27.1246V5.67048H28.4485V5.10475H25.1475V5.67048H26.4714V9.31272Z" fill="white"/>
<path d="M29.4546 9.36521C29.5946 9.36521 29.7238 9.34577 29.8424 9.30689C29.961 9.26801 30.067 9.21163 30.1603 9.13775C30.2536 9.06193 30.3314 8.97056 30.3936 8.86364H30.4402V9.31272H31.0701V7.14604C31.0701 6.92441 31.0215 6.73486 30.9243 6.57739C30.829 6.41798 30.6881 6.29647 30.5015 6.21288C30.3168 6.12734 30.0913 6.08457 29.8249 6.08457C29.5858 6.08457 29.3729 6.12053 29.1863 6.19247C29.0016 6.2644 28.8519 6.36549 28.7372 6.49574C28.6245 6.62405 28.5554 6.77569 28.5302 6.95066L28.5273 6.97107H29.1367L29.1426 6.96232C29.1795 6.84957 29.2534 6.76208 29.3642 6.69987C29.4769 6.63766 29.6218 6.60656 29.7987 6.60656C30.0106 6.60656 30.17 6.65321 30.2769 6.74653C30.3858 6.8379 30.4402 6.97107 30.4402 7.14604V8.14335C30.4402 8.27944 30.4052 8.40192 30.3352 8.51079C30.2653 8.61771 30.1681 8.70325 30.0436 8.7674C29.9212 8.82962 29.7812 8.86072 29.6237 8.86072C29.4546 8.86072 29.3146 8.81989 29.2038 8.73824C29.093 8.65465 29.0376 8.54092 29.0376 8.39706V8.39122C29.0376 8.24931 29.0891 8.13947 29.1921 8.0617C29.2952 7.98199 29.4556 7.93534 29.6733 7.92173L30.7552 7.85174V7.40557L29.5858 7.47556C29.2087 7.49889 28.917 7.59123 28.711 7.75259C28.5068 7.91201 28.4048 8.13363 28.4048 8.41747V8.4233C28.4048 8.61382 28.4505 8.78004 28.5418 8.92196C28.6332 9.06388 28.7576 9.17372 28.9151 9.25148C29.0745 9.3273 29.2543 9.36521 29.4546 9.36521ZM29.5975 5.89794H30.0203C30.1058 5.83378 30.1729 5.75796 30.2215 5.67048C30.2701 5.58105 30.2944 5.48093 30.2944 5.37012C30.2944 5.18737 30.2312 5.04643 30.1049 4.94728C29.9785 4.84619 29.823 4.79564 29.6383 4.79564C29.578 4.79564 29.5207 4.8005 29.4662 4.81022C29.4138 4.81994 29.3661 4.83161 29.3234 4.84522V5.2943C29.3486 5.28847 29.3749 5.28361 29.4021 5.27972C29.4293 5.27583 29.4585 5.27389 29.4896 5.27389C29.5965 5.27389 29.6801 5.29721 29.7404 5.34387C29.8006 5.39053 29.8308 5.45274 29.8308 5.5305C29.8308 5.59855 29.8094 5.6627 29.7666 5.72297C29.7238 5.78129 29.6675 5.83864 29.5975 5.89502V5.89794Z" fill="white"/>
<path d="M31.9712 9.31272H32.6069V6.14581H31.9712V9.31272ZM32.292 5.58008C32.4008 5.58008 32.4942 5.5412 32.5719 5.46343C32.6497 5.38567 32.6886 5.29235 32.6886 5.18349C32.6886 5.07462 32.6497 4.98227 32.5719 4.90645C32.4942 4.82869 32.4008 4.78981 32.292 4.78981C32.1831 4.78981 32.0898 4.82869 32.012 4.90645C31.9343 4.98227 31.8954 5.07462 31.8954 5.18349C31.8954 5.29235 31.9343 5.38567 32.012 5.46343C32.0898 5.5412 32.1831 5.58008 32.292 5.58008Z" fill="white"/>
<path d="M36.0246 9.31272H36.7012L37.8443 6.14581H37.1765L36.3891 8.67117H36.3425L35.5522 6.14581H34.8786L36.0246 9.31272Z" fill="white"/>
<path d="M39.6902 9.37396C39.8943 9.37396 40.0741 9.34771 40.2297 9.29522C40.3871 9.24273 40.5213 9.17372 40.6321 9.08818C40.7448 9.00264 40.8352 8.90835 40.9033 8.80531C40.9713 8.70033 41.019 8.59535 41.0462 8.49037L41.052 8.46413H40.4396L40.428 8.48746C40.4046 8.54189 40.3609 8.5973 40.2967 8.65368C40.2345 8.71005 40.1538 8.75768 40.0547 8.79657C39.9575 8.8335 39.8408 8.85197 39.7048 8.85197C39.5278 8.85197 39.3743 8.81309 39.244 8.73533C39.1157 8.65756 39.0166 8.54481 38.9466 8.39706C38.8766 8.24931 38.8416 8.07142 38.8416 7.86341V7.6097C38.8416 7.39197 38.8766 7.20825 38.9466 7.05855C39.0185 6.90886 39.1157 6.7961 39.2382 6.72028C39.3626 6.64252 39.5035 6.60364 39.661 6.60364C39.8185 6.60364 39.9575 6.64058 40.078 6.71445C40.1986 6.78833 40.2928 6.90011 40.3609 7.04981C40.4309 7.19756 40.4659 7.38419 40.4659 7.6097V7.86341L40.7691 7.44348H38.5237V7.89548H41.0841V7.67386C41.0841 7.35503 41.0267 7.07702 40.912 6.83985C40.7973 6.60072 40.6331 6.41506 40.4192 6.28287C40.2073 6.15067 39.9536 6.08457 39.6581 6.08457C39.3645 6.08457 39.1079 6.15358 38.8882 6.29161C38.6705 6.42964 38.5014 6.62211 38.3808 6.86901C38.2623 7.11591 38.203 7.4046 38.203 7.7351V7.73801C38.203 8.07239 38.2623 8.36206 38.3808 8.60702C38.5014 8.85197 38.6725 9.04152 38.8941 9.17566C39.1157 9.30786 39.3811 9.37396 39.6902 9.37396ZM38.7803 5.89794H39.2878L39.7368 5.23306H39.5939L40.0518 5.89794H40.5592L39.941 4.99685H39.3957L38.7803 5.89794ZM40.1159 4.92103H40.5563L40.0897 4.11035H39.4861L40.1159 4.92103Z" fill="white"/>
<path d="M44.6593 9.33313C44.7215 9.33313 44.7817 9.32924 44.8401 9.32147C44.8984 9.31564 44.9528 9.30883 45.0034 9.30106V8.79365C44.9586 8.79754 44.9188 8.80045 44.8838 8.8024C44.8508 8.80434 44.8109 8.80531 44.7642 8.80531C44.6068 8.80531 44.494 8.76838 44.426 8.6945C44.3579 8.61868 44.3239 8.49523 44.3239 8.32415V6.64446H45.0034V6.14581H44.3239V5.34679H43.6765V6.14581H43.1808V6.64446H43.6765V8.47871C43.6765 8.78198 43.7533 9.00069 43.9069 9.13484C44.0624 9.26703 44.3132 9.33313 44.6593 9.33313Z" fill="white"/>
<path d="M45.7441 9.31272H46.3769V7.42015C46.3769 7.26657 46.4109 7.13437 46.4789 7.02356C46.5489 6.9108 46.6442 6.82332 46.7647 6.76111C46.8872 6.6989 47.0291 6.66779 47.1905 6.66779C47.2507 6.66779 47.3081 6.67071 47.3625 6.67654C47.4189 6.68237 47.4753 6.69112 47.5316 6.70279V6.11956C47.5005 6.11179 47.4597 6.10498 47.4092 6.09915C47.3586 6.09332 47.3071 6.0904 47.2546 6.0904C47.0447 6.0904 46.8677 6.13706 46.7239 6.23038C46.582 6.32369 46.4828 6.45492 46.4264 6.62405H46.3769V6.14581H45.7441V9.31272Z" fill="white"/>
<path d="M49.3892 9.37396C49.5933 9.37396 49.7732 9.34771 49.9287 9.29522C50.0862 9.24273 50.2203 9.17372 50.3311 9.08818C50.4439 9.00264 50.5343 8.90835 50.6023 8.80531C50.6704 8.70033 50.718 8.59535 50.7452 8.49037L50.751 8.46413H50.1387L50.127 8.48746C50.1037 8.54189 50.0599 8.5973 49.9958 8.65368C49.9336 8.71005 49.8529 8.75768 49.7537 8.79657C49.6565 8.8335 49.5399 8.85197 49.4038 8.85197C49.2269 8.85197 49.0733 8.81309 48.943 8.73533C48.8147 8.65756 48.7156 8.54481 48.6456 8.39706C48.5756 8.24931 48.5406 8.07142 48.5406 7.86341V7.6097C48.5406 7.39197 48.5756 7.20825 48.6456 7.05855C48.7175 6.90886 48.8147 6.7961 48.9372 6.72028C49.0616 6.64252 49.2026 6.60364 49.3601 6.60364C49.5175 6.60364 49.6565 6.64058 49.7771 6.71445C49.8976 6.78833 49.9919 6.90011 50.0599 7.04981C50.1299 7.19756 50.1649 7.38419 50.1649 7.6097V7.86341L50.4682 7.44348H48.2228V7.89548H50.7831V7.67386C50.7831 7.35503 50.7258 7.07702 50.6111 6.83985C50.4964 6.60072 50.3321 6.41506 50.1182 6.28287C49.9063 6.15067 49.6526 6.08457 49.3571 6.08457C49.0636 6.08457 48.807 6.15358 48.5873 6.29161C48.3695 6.42964 48.2004 6.62211 48.0799 6.86901C47.9613 7.11591 47.902 7.4046 47.902 7.7351V7.73801C47.902 8.07239 47.9613 8.36206 48.0799 8.60702C48.2004 8.85197 48.3715 9.04152 48.5931 9.17566C48.8147 9.30786 49.0801 9.37396 49.3892 9.37396ZM48.3073 5.70839H48.9314L49.3455 5.06392H49.3921L49.8062 5.70839H50.4303L49.71 4.70524H49.0276L48.3073 5.70839Z" fill="white"/>
<path d="M51.5355 9.31272H52.1683V7.45515C52.1683 7.28407 52.1984 7.13729 52.2587 7.01481C52.3209 6.89039 52.4084 6.79513 52.5211 6.72903C52.6339 6.66099 52.7671 6.62697 52.9206 6.62697C53.1539 6.62697 53.325 6.69209 53.4339 6.82235C53.5447 6.95066 53.6001 7.14701 53.6001 7.41141V9.31272H54.2358V7.26268C54.2358 6.88553 54.1415 6.59489 53.953 6.39076C53.7644 6.18663 53.4922 6.08457 53.1364 6.08457C52.9051 6.08457 52.7136 6.1322 52.562 6.22746C52.4103 6.32272 52.2956 6.45492 52.2179 6.62405H52.1683V6.14581H51.5355V9.31272Z" fill="white"/>
</svg>
